<?xml version="1.0" encoding="UTF-8" standalone="no"?>
<!DOCTYPE svg PUBLIC "-//W3C//DTD SVG 1.1//EN"
 "http://www.w3.org/Graphics/SVG/1.1/DTD/svg11.dtd">
<!-- Generated by graphviz version 2.43.0 (0)
 -->
<!-- Title: model_steps Pages: 1 -->
<svg width="353pt" height="378pt"
 viewBox="0.00 0.00 352.87 378.00" xmlns="http://www.w3.org/2000/svg" xmlns:xlink="http://www.w3.org/1999/xlink">
<g id="graph0" class="graph" transform="scale(1 1) rotate(0) translate(4 374)">
<title>model_steps</title>
<polygon fill="white" stroke="transparent" points="-4,4 -4,-374 348.87,-374 348.87,4 -4,4"/>
<!-- A -->
<g id="node1" class="node">
<title>A</title>
<ellipse fill="none" stroke="black" cx="124.87" cy="-352" rx="65.79" ry="18"/>
<text text-anchor="middle" x="124.87" y="-348.3" font-family="Times,serif" font-size="14.00">Resegenerering</text>
</g>
<!-- B -->
<g id="node2" class="node">
<title>B</title>
<ellipse fill="none" stroke="black" cx="124.87" cy="-265" rx="64.19" ry="18"/>
<text text-anchor="middle" x="124.87" y="-261.3" font-family="Times,serif" font-size="14.00">Resefördelning</text>
</g>
<!-- A&#45;&gt;B -->
<g id="edge1" class="edge">
<title>A&#45;&gt;B</title>
<path fill="none" stroke="black" d="M124.87,-333.8C124.87,-322.16 124.87,-306.55 124.87,-293.24"/>
<polygon fill="black" stroke="black" points="128.37,-293.18 124.87,-283.18 121.37,-293.18 128.37,-293.18"/>
<text text-anchor="middle" x="234.87" y="-304.8" font-family="Times,serif" font-size="14.00">mängden resor med start&#45; och målpunkt</text>
</g>
<!-- C -->
<g id="node3" class="node">
<title>C</title>
<ellipse fill="none" stroke="black" cx="71.87" cy="-178" rx="63.09" ry="18"/>
<text text-anchor="middle" x="71.87" y="-174.3" font-family="Times,serif" font-size="14.00">Färdmedelsval</text>
</g>
<!-- B&#45;&gt;C -->
<g id="edge2" class="edge">
<title>B&#45;&gt;C</title>
<path fill="none" stroke="black" d="M114.4,-247.21C106.78,-234.98 96.32,-218.21 87.68,-204.36"/>
<polygon fill="black" stroke="black" points="90.58,-202.39 82.32,-195.76 84.64,-206.1 90.58,-202.39"/>
<text text-anchor="middle" x="131.37" y="-217.8" font-family="Times,serif" font-size="14.00">OD&#45;matris</text>
</g>
<!-- D -->
<g id="node4" class="node">
<title>D</title>
<ellipse fill="none" stroke="black" cx="116.87" cy="-91" rx="55.49" ry="18"/>
<text text-anchor="middle" x="116.87" y="-87.3" font-family="Times,serif" font-size="14.00">Aggregering</text>
</g>
<!-- C&#45;&gt;D -->
<g id="edge3" class="edge">
<title>C&#45;&gt;D</title>
<path fill="none" stroke="black" d="M31.38,-164.13C10.83,-155.38 -7.61,-142.57 3.87,-127 15.54,-111.16 34.3,-102.28 53.21,-97.36"/>
<polygon fill="black" stroke="black" points="54.1,-100.75 63.08,-95.13 52.55,-93.92 54.1,-100.75"/>
<text text-anchor="middle" x="110.37" y="-130.8" font-family="Times,serif" font-size="14.00">färdmedelsfördelning för varje OD&#45;par</text>
</g>
<!-- D&#45;&gt;B -->
<g id="edge5" class="edge">
<title>D&#45;&gt;B</title>
<path fill="none" stroke="black" d="M168.27,-97.66C186.68,-102.45 205.64,-111.17 216.87,-127 245.26,-167.02 194.49,-214.81 157.76,-242.06"/>
<polygon fill="black" stroke="black" points="155.31,-239.52 149.25,-248.21 159.41,-245.19 155.31,-239.52"/>
</g>
<!-- res -->
<g id="node5" class="node">
<title>res</title>
<ellipse fill="none" stroke="black" cx="116.87" cy="-18" rx="39.79" ry="18"/>
<text text-anchor="middle" x="116.87" y="-14.3" font-family="Times,serif" font-size="14.00">Resultat</text>
</g>
<!-- D&#45;&gt;res -->
<g id="edge4" class="edge">
<title>D&#45;&gt;res</title>
<path fill="none" stroke="black" d="M116.87,-72.81C116.87,-64.79 116.87,-55.05 116.87,-46.07"/>
<polygon fill="black" stroke="black" points="120.37,-46.03 116.87,-36.03 113.37,-46.03 120.37,-46.03"/>
</g>
</g>
</svg>
